# xmcd
#
# Track frame offsets:
#  150
#  11372
#  24722
#  38627
#  49602
#  64855
#  77487
#  94302
#  107097
#  120080
#  135165
#  155572
#  168350
#  189617
#  207760
#  220972
#  237170
#  254890
#  268312
#  283657
#  295330
#
# Disc length: 4081 seconds
#
# Revision: 0
# Processed by: cddbd v1.4PL0 Copyright (c) Steve Scherf et al.
# Submitted via: AltoMP3_Maker 3.0
#
DISCID=2b0fef15
DTITLE=Conway Twitty - Forty-One #1 Hits
DYEAR=1900
DGENRE=
TTITLE0=This time I've hurt her more than she loves me
TTITLE1=After all the good is gone
TTITLE2=The games that daddies play
TTITLE3=I can't believe she gives it all to me
TTITLE4=Play, Guitar play
TTITLE5=I've already loved you in my mind
TTITLE6=Don't take it away
TTITLE7=I may never get to heaven
TTITLE8=Happy birthday darlin'
TTITLE9=I'd just love to lay you down
TTITLE10=Rest your love on me
TTITLE11=Tight fittin' jeans
TTITLE12=Red neckin' love makin' night
TTITLE13=The clown
TTITLE14=Slow hand
TTITLE15=The rose
TTITLE16=Somebody's needin' somebody
TTITLE17=I don't know a Thing about love (The Moon Song)
TTITLE18=Ain't she somethin' else
TTITLE19=Don't call him a cowboy
TTITLE20=Desperado Love
EXTD=
EXTT0=
EXTT1=
EXTT2=
EXTT3=
EXTT4=
EXTT5=
EXTT6=
EXTT7=
EXTT8=
EXTT9=
EXTT10=
EXTT11=
EXTT12=
EXTT13=
EXTT14=
EXTT15=
EXTT16=
EXTT17=
EXTT18=
EXTT19=
EXTT20=
PLAYORDER=
